<svg xmlns="http://www.w3.org/2000/svg" viewBox="0 0 700 700" fill="#FF7A6B">
  <path d="M350 100c-100 0-200 50-250 150-10 20-20 40-20 60 0 30 20 50 40 50 30 0 50-30 60-50 20-40 60-80 110-100 0 0 0 80 0 120-50 20-90 70-90 130 0 80 70 150 150 150s150-70 150-150c0-60-40-110-90-130 0-40 0-120 0-120 50 20 90 60 110 100 10 20 30 50 60 50 20 0 40-20 40-50 0-20-10-40-20-60-50-100-150-150-250-150zm-80 380c-30 0-50 20-50 50s20 50 50 50 50-20 50-50-20-50-50-50zm160 0c-30 0-50 20-50 50s20 50 50 50 50-20 50-50-20-50-50-50z"/>
</svg>
