<svg xmlns="http://www.w3.org/2000/svg" viewBox="0 0 512 512">
  <defs>
    <linearGradient id="grad1" x1="0%" y1="0%" x2="100%" y2="100%">
      <stop offset="0%" style="stop-color:#1a5f2a;stop-opacity:1" />
      <stop offset="100%" style="stop-color:#0d3d18;stop-opacity:1" />
    </linearGradient>
    <linearGradient id="gold" x1="0%" y1="0%" x2="100%" y2="100%">
      <stop offset="0%" style="stop-color:#d4af37;stop-opacity:1" />
      <stop offset="100%" style="stop-color:#b8960c;stop-opacity:1" />
    </linearGradient>
  </defs>
  
  <!-- Fondo con esquinas redondeadas -->
  <rect width="512" height="512" rx="80" ry="80" fill="url(#grad1)"/>
  
  <!-- Borde dorado interior -->
  <rect x="20" y="20" width="472" height="472" rx="60" ry="60" fill="none" stroke="url(#gold)" stroke-width="4"/>
  
  <!-- Escudo estilizado -->
  <path d="M256 100 L380 160 L380 280 C380 360 256 420 256 420 C256 420 132 360 132 280 L132 160 Z" 
        fill="none" stroke="url(#gold)" stroke-width="6"/>
  
  <!-- Icono de vehículo estilizado -->
  <g fill="#ffffff">
    <!-- Carrocería -->
    <path d="M180 260 L190 220 C195 200 210 190 230 190 L282 190 C302 190 317 200 322 220 L332 260 L340 260 C350 260 358 268 358 278 L358 310 C358 320 350 328 340 328 L330 328 L330 340 C330 352 320 362 308 362 L298 362 C286 362 276 352 276 340 L276 328 L236 328 L236 340 C236 352 226 362 214 362 L204 362 C192 362 182 352 182 340 L182 328 L172 328 C162 328 154 320 154 310 L154 278 C154 268 162 260 172 260 Z"/>
    <!-- Ventanas -->
    <path d="M200 255 L208 225 C212 212 222 205 235 205 L277 205 C290 205 300 212 304 225 L312 255 Z" fill="#1a5f2a"/>
    <!-- Línea divisora de ventana -->
    <line x1="256" y1="205" x2="256" y2="255" stroke="#1a5f2a" stroke-width="3"/>
    <!-- Faros -->
    <circle cx="175" cy="275" r="8" fill="#d4af37"/>
    <circle cx="337" cy="275" r="8" fill="#d4af37"/>
  </g>
  
  <!-- Texto GV (Gobierno Veracruz) -->
  <text x="256" y="400" font-family="Arial, sans-serif" font-size="48" font-weight="bold" 
        fill="url(#gold)" text-anchor="middle">FLOTA</text>
</svg>